<?xml version="1.0"?>
<svg id="Layer_1" data-name="Layer 1" xmlns="http://www.w3.org/2000/svg" viewBox="0 0 160 160">
  <defs>
    
  </defs>
  <path fill="#2cc84d" d="M81.91,71.22h-3.6l-6.17,17.67c11.81,0,14.76-10.27,14.76-14.08,0-2.52-2.46-3.59-5-3.59M118.18,86.57h7.43l1.16-13.27h-.9l-7.68,13.27ZM0,80c0,43.76,35.6,79.37,79.37,79.37s79.37-35.6,79.37-79.37S123.13.63,79.37.63,0,36.24,0,80ZM46.62,99.33c-2.92.86-7.78,1.6-12.75,1.6-11.59,0-18.14-8.38-18.14-14.6,0-16.29,15.95-27.27,32.43-27.27,3.94,0,8.4.49,11.62,1.32l-4.46,12.91c-2.06-.86-5.71-1.32-9.57-1.32-5.06,0-13.56,3.78-13.56,10.64,0,3.9,3.06,5.83,8.7,5.83,3.92,0,6.6-.86,10.32-2.29l-4.59,13.18v.02ZM71.1,100.7h-18.24l14.49-41.43h16.14c15.76,0,19.4,7.86,19.4,14.44,0,12.25-11.76,26.99-31.81,26.99h.02ZM124.45,100.7l.56-6.51h-11.18l-3.79,6.51h-16.22l30.64-41.43h14.92v41.43s-14.92,0-14.92,0Z"></path>
</svg>