<?xml version="1.0"?>
<svg id="Layer_1" data-name="Layer 1" xmlns="http://www.w3.org/2000/svg" viewBox="0 0 160 160">
  <defs>
    
  </defs>
  <g id="Laag_1" data-name="Laag 1">
    <circle fill="#242b57" cx="80" cy="80" r="80"></circle>
  </g>
  <g id="Laag_2" data-name="Laag 2">
    <path fill="#fff" d="M40.28,82.61h9c.07,5.01,1.44,8.24,6.18,8.24,5.08,0,5.7-4.46,5.7-8.58v-32.76h9.89v32.76c0,7.89-2.88,17.51-15.59,17.51-10.64,0-15.18-6.66-15.18-17.16Z"></path>
    <path fill="#fff" d="M101.73,86.53h-17.17l-4.05,12.09h-9.96l17.72-49.1h10.16l17.51,49.1h-10.23l-3.98-12.09ZM98.7,77.4l-5.42-16.62h-.14l-5.56,16.62h11.13Z"></path>
    <g>
      <path fill="#fff" d="M110.23,39.51c-.15.13-.32.23-.46.37-1.55,1.58-2.32,3.85-2.26,6.73v.37h5.17v-.38c0-1.86.52-3.04,1.45-3.71.55-.4,1.2-.66,2.08-.66,2.21,0,3.42,1.12,3.42,3.15,0,1-.36,1.86-.91,2.63-.91,1.26-2.37,2.27-3.73,3.19-.03.02-.07.04-.1.07-4.45,3.25-7.34,5.78-7.34,11.4v.38h17.71v-4.71h-10.91c.62-.97,2.11-2.35,4.22-3.89.03-.02.05-.04.08-.06,1.06-.72,2.07-1.46,2.97-2.27.62-.56,1.17-1.16,1.65-1.81.59-.81,1.05-1.71,1.34-2.74.22-.78.37-1.61.37-2.55,0-.56-.06-1.1-.15-1.61-.05-.25-.14-.47-.22-.7-.37-1.21-1-2.27-1.91-3.09-.1-.09-.21-.17-.32-.25-.62-.5-1.33-.91-2.13-1.22-1.11-.43-2.37-.68-3.76-.68-2.55,0-4.57.66-6.09,1.9-.06.05-.11.09-.17.13Z"></path>
      <path fill="#df201a" d="M127.76,66.5c.97,3.86,1.54,7.88,1.54,12.04,0,27.38-22.28,49.66-49.66,49.66s-49.66-22.28-49.66-49.66,22.28-49.66,49.66-49.66c10.31,0,19.9,3.16,27.84,8.57,1.44-1.46,4.07-3.11,8.3-3.32-9.87-8.05-22.45-12.89-36.14-12.89-31.6,0-57.3,25.7-57.3,57.3s25.7,57.3,57.3,57.3,57.3-25.7,57.3-57.3c0-4.13-.46-8.16-1.3-12.04h-7.88Z"></path>
      <path fill="#fff" d="M133.25,37.9l-.06.32c-.08.45-.26.78-.4,1.16-.67,1.78-2.11,2.76-4.54,3.09-.3.04-.61.09-.92.12.03.12.07.23.1.34.13.67.2,1.38.2,2.09,0,.62-.07,1.23-.17,1.85h4.74v16.18h5.34v-25.15h-4.3Z"></path>
    </g>
  </g>
</svg>