<?xml version="1.0" encoding="UTF-8"?>
<svg id="Layer_1" data-name="Layer 1" xmlns="http://www.w3.org/2000/svg" viewBox="0 0 160 160">
  <defs>
    <style>
      .cls-1 {
        fill: #00b7b2;
      }
    </style>
  </defs>
  <g id="g2036">
    <path id="path1476" class="cls-1" d="M1.05,60.82c0-.84.2-1.67.59-2.41.39-.78.92-1.48,1.56-2.07.65-.59,1.38-1.07,2.18-1.43.74-.35,1.55-.54,2.38-.55h6.23c4.05,0,7.58.68,10.59,2.03,3.01,1.35,5.52,3.14,7.52,5.37,1.98,2.2,3.52,4.77,4.52,7.56,1.01,2.77,1.52,5.7,1.52,8.65,0,2.89-.48,5.76-1.44,8.49-.94,2.71-2.42,5.2-4.36,7.32-1.95,2.13-4.36,3.86-7.24,5.18-2.88,1.32-6.25,1.98-10.09,1.99h-7.24c-2.02,0-3.65-.58-4.87-1.75-1.22-1.17-1.83-2.74-1.83-4.72v-33.65ZM15.07,88c1.71,0,3.21-.31,4.48-.94,1.22-.59,2.32-1.41,3.23-2.41.88-.98,1.56-2.14,1.99-3.39.44-1.26.67-2.59.66-3.93,0-1.25-.21-2.48-.62-3.66-.4-1.18-1.05-2.25-1.91-3.16-.93-.96-2.04-1.72-3.27-2.23-1.33-.57-2.87-.85-4.64-.85h-1.09v20.56h1.17Z"/>
    <path id="path1478" class="cls-1" d="M48.88,100.93c-4.26,0-6.39-2.16-6.39-6.47v-33.65c0-4.31,2.13-6.47,6.39-6.47h21.81c2.03,0,3.61.64,4.75,1.91,1.13,1.24,1.74,2.87,1.71,4.56.03,1.68-.58,3.31-1.71,4.55-1.14,1.27-2.73,1.91-4.75,1.91h-15.42v3.89h12.31c2.02,0,3.61.64,4.75,1.91,2.29,2.61,2.29,6.51,0,9.11-1.14,1.27-2.73,1.91-4.75,1.91h-12.31v3.89h15.42c2.03,0,3.61.64,4.75,1.91,2.28,2.61,2.28,6.51,0,9.11-1.14,1.27-2.73,1.91-4.75,1.91h-21.81Z"/>
    <path id="path1480" class="cls-1" d="M95.23,94.47c0,2.08-.64,3.66-1.91,4.75-1.27,1.09-2.79,1.63-4.56,1.63-1.64.03-3.24-.56-4.48-1.63-1.27-1.09-1.91-2.68-1.91-4.75v-33.65c0-2.08.64-3.66,1.91-4.75,1.24-1.08,2.83-1.66,4.48-1.64h.32c2.29,0,3.92.96,4.91,2.88l11.68,17.68v-14.18c0-2.08.64-3.66,1.91-4.75,1.24-1.08,2.84-1.66,4.48-1.64,1.77,0,3.29.55,4.56,1.64s1.91,2.67,1.91,4.75v33.65c0,2.08-.64,3.66-1.91,4.75-1.27,1.09-2.79,1.63-4.56,1.63-.76.02-1.53-.09-2.26-.31-.57-.18-1.1-.44-1.59-.78-.39-.26-.74-.58-1.05-.93-.26-.32-.47-.57-.62-.78l-11.29-16.82v13.24Z"/>
    <path id="path1482" class="cls-1" d="M136.74,94.47c0,2.08-.64,3.66-1.91,4.75-1.24,1.08-2.84,1.66-4.48,1.63-1.77,0-3.28-.54-4.56-1.63-1.27-1.09-1.91-2.67-1.91-4.75v-33.65c0-2.08.64-3.66,1.91-4.75s2.79-1.64,4.56-1.64c1.64-.03,3.24.56,4.48,1.64,1.27,1.09,1.91,2.68,1.91,4.75v10.67l10.44-14.88c.65-.72,1.41-1.32,2.26-1.79.84-.43,1.78-.64,2.73-.62.87,0,1.74.18,2.53.55.78.35,1.5.83,2.14,1.4.63.58,1.13,1.29,1.48,2.07.98,2.14.62,4.66-.93,6.43l-11.36,12.77,11.37,13.01c1,1.11,1.56,2.55,1.56,4.05,0,.87-.2,1.72-.58,2.49-.38.76-.9,1.45-1.53,2.03-.63.58-1.36,1.05-2.14,1.4-.77.36-1.61.54-2.45.55-1.97,0-3.64-.83-4.99-2.49l-10.51-14.65v10.67Z"/>
  </g>
</svg>